<?xml version="1.0" encoding="UTF-8" standalone="no"?>
<!-- Created with Inkscape (http://www.inkscape.org/) -->

<svg
   xmlns:dc="http://purl.org/dc/elements/1.1/"
   xmlns:cc="http://creativecommons.org/ns#"
   xmlns:rdf="http://www.w3.org/1999/02/22-rdf-syntax-ns#"
   xmlns:svg="http://www.w3.org/2000/svg"
   xmlns="http://www.w3.org/2000/svg"
   xmlns:xlink="http://www.w3.org/1999/xlink"
   xmlns:sodipodi="http://sodipodi.sourceforge.net/DTD/sodipodi-0.dtd"
   xmlns:inkscape="http://www.inkscape.org/namespaces/inkscape"
   width="744.09448819"
   height="1052.3622047"
   id="svg2"
   version="1.1"
   inkscape:version="0.48.4 r9939"
   sodipodi:docname="background.svg">
  <defs
     id="defs4">
    <linearGradient
       id="linearGradient5617">
      <stop
         style="stop-color:#ffffff;stop-opacity:0.60714287;"
         offset="0"
         id="stop5619" />
      <stop
         style="stop-color:#707070;stop-opacity:0.5;"
         offset="1"
         id="stop5621" />
    </linearGradient>
    <radialGradient
       inkscape:collect="always"
       xlink:href="#linearGradient5617"
       id="radialGradient5623"
       cx="-42.857143"
       cy="173.79076"
       fx="-42.857143"
       fy="173.79076"
       r="61.42857"
       gradientUnits="userSpaceOnUse" />
    <filter
       inkscape:collect="always"
       id="filter5635"
       x="-0.32347826"
       width="1.6469565"
       y="-0.32347826"
       height="1.6469565">
      <feGaussianBlur
         inkscape:collect="always"
         stdDeviation="16.559006"
         id="feGaussianBlur5637" />
    </filter>
    <filter
       inkscape:collect="always"
       id="filter5641">
      <feGaussianBlur
         inkscape:collect="always"
         stdDeviation="1.3354037"
         id="feGaussianBlur5643" />
    </filter>
    <radialGradient
       inkscape:collect="always"
       xlink:href="#linearGradient5617"
       id="radialGradient5690"
       gradientUnits="userSpaceOnUse"
       cx="-42.857143"
       cy="173.79076"
       fx="-42.857143"
       fy="173.79076"
       r="61.42857" />
  </defs>
  <sodipodi:namedview
     id="base"
     pagecolor="#ffffff"
     bordercolor="#666666"
     borderopacity="1.0"
     inkscape:pageopacity="0.0"
     inkscape:pageshadow="2"
     inkscape:zoom="0.98994949"
     inkscape:cx="427.37206"
     inkscape:cy="733.62629"
     inkscape:document-units="px"
     inkscape:current-layer="layer1"
     showgrid="false"
     inkscape:window-width="1920"
     inkscape:window-height="1027"
     inkscape:window-x="-8"
     inkscape:window-y="-8"
     inkscape:window-maximized="1" />
  <metadata
     id="metadata7">
    <rdf:RDF>
      <cc:Work
         rdf:about="">
        <dc:format>image/svg+xml</dc:format>
        <dc:type
           rdf:resource="http://purl.org/dc/dcmitype/StillImage" />
        <dc:title></dc:title>
      </cc:Work>
    </rdf:RDF>
  </metadata>
  <g
     inkscape:label="Layer 1"
     inkscape:groupmode="layer"
     id="layer1">
    <rect
       style="fill:#0e232e;fill-opacity:1;fill-rule:evenodd;stroke:none"
       id="rect2985"
       width="1280"
       height="720"
       x="-260.8942"
       y="0.64345533"
       inkscape:export-filename="E:\Projects\java\LD31\Assets\gfx\background.png"
       inkscape:export-xdpi="90"
       inkscape:export-ydpi="90" />
    <g
       id="g5645"
       transform="translate(-84.548237,-34.273397)"
       inkscape:export-filename="E:\Projects\java\LD31\Assets\gfx\background.png"
       inkscape:export-xdpi="90"
       inkscape:export-ydpi="90">
      <path
         transform="matrix(1.0581395,0,0,1.0581395,41.063123,-24.389828)"
         d="m 18.571426,173.79076 c 0,33.92606 -27.5025071,61.42857 -61.428569,61.42857 -33.926063,0 -61.428567,-27.50251 -61.428567,-61.42857 0,-33.92607 27.502504,-61.42857 61.428567,-61.42857 33.9260619,0 61.428569,27.5025 61.428569,61.42857 z"
         sodipodi:ry="61.42857"
         sodipodi:rx="61.42857"
         sodipodi:cy="173.79076"
         sodipodi:cx="-42.857143"
         id="path5639"
         style="fill:#fffbd5;fill-opacity:0.31216933;fill-rule:evenodd;stroke:none;filter:url(#filter5641)"
         sodipodi:type="arc" />
      <path
         transform="translate(38.571429,-14.285714)"
         d="m 18.571426,173.79076 c 0,33.92606 -27.5025071,61.42857 -61.428569,61.42857 -33.926063,0 -61.428567,-27.50251 -61.428567,-61.42857 0,-33.92607 27.502504,-61.42857 61.428567,-61.42857 33.9260619,0 61.428569,27.5025 61.428569,61.42857 z"
         sodipodi:ry="61.42857"
         sodipodi:rx="61.42857"
         sodipodi:cy="173.79076"
         sodipodi:cx="-42.857143"
         id="path5501"
         style="fill:#fff492;fill-opacity:1;fill-rule:evenodd;stroke:none"
         sodipodi:type="arc" />
      <path
         sodipodi:type="arc"
         style="fill:#c5b844;fill-opacity:0.24867727;fill-rule:evenodd;stroke:none"
         id="path5503"
         sodipodi:cx="-42.857143"
         sodipodi:cy="173.79076"
         sodipodi:rx="61.42857"
         sodipodi:ry="61.42857"
         d="m 18.571426,173.79076 c 0,33.92606 -27.5025071,61.42857 -61.428569,61.42857 -33.926063,0 -61.428567,-27.50251 -61.428567,-61.42857 0,-33.92607 27.502504,-61.42857 61.428567,-61.42857 33.9260619,0 61.428569,27.5025 61.428569,61.42857 z"
         transform="matrix(0.04360462,0,0,0.04360462,-36.881231,193.5341)" />
      <use
         height="1052.3622"
         width="744.09448"
         y="0"
         x="0"
         transform="matrix(0.96814803,-0.37445596,0.37445596,0.96814803,-52.781798,-41.158407)"
         xlink:href="#path5503"
         id="use5505" />
      <use
         height="1052.3622"
         width="744.09448"
         y="0"
         x="0"
         transform="matrix(-0.43268799,-0.94796049,0.94796049,-0.43268799,-224.45506,193.15634)"
         xlink:href="#path5503"
         id="use5511" />
      <use
         height="1052.3622"
         width="744.09448"
         y="0"
         x="0"
         transform="matrix(-0.54197385,0.85856791,-0.85856791,-0.54197385,112.28704,314.91272)"
         xlink:href="#path5503"
         id="use5513" />
      <use
         height="1052.3622"
         width="744.09448"
         y="0"
         x="0"
         transform="matrix(-0.30858485,-0.95649317,0.95649317,-0.30858485,-195.44931,175.88171)"
         xlink:href="#path5503"
         id="use5517" />
      <use
         height="1052.3622"
         width="744.09448"
         y="0"
         x="0"
         transform="matrix(-0.70402388,-0.68781043,0.68781043,-0.70402388,-173.6552,274.56981)"
         xlink:href="#path5503"
         id="use5519" />
      <use
         height="1052.3622"
         width="744.09448"
         y="0"
         x="0"
         transform="matrix(0.91690338,-0.34415607,0.34415607,0.91690338,-19.683455,-63.470635)"
         xlink:href="#path5503"
         id="use5523" />
      <use
         height="1052.3622"
         width="744.09448"
         y="0"
         x="0"
         transform="matrix(0.44363909,-0.94209199,0.94209199,0.44363909,-172.82539,2.0268251)"
         xlink:href="#path5503"
         id="use5527" />
      <use
         height="1052.3622"
         width="744.09448"
         y="0"
         x="0"
         transform="matrix(-0.54190984,0.8112946,-0.8112946,-0.54190984,146.07706,327.95298)"
         xlink:href="#path5503"
         id="use5529" />
      <use
         height="1052.3622"
         width="744.09448"
         y="0"
         x="0"
         transform="matrix(0.09791762,-0.98155303,0.98155303,0.09791762,-169.22431,105.59751)"
         xlink:href="#path5503"
         id="use5531" />
      <use
         height="1052.3622"
         width="744.09448"
         y="0"
         x="0"
         transform="matrix(0.92690154,0.26023561,-0.26023561,0.92690154,118.11326,-35.089455)"
         xlink:href="#path5503"
         id="use5533" />
      <use
         height="1052.3622"
         width="744.09448"
         y="0"
         x="0"
         transform="matrix(0.65324163,-0.83308489,0.83308489,0.65324163,-133.18469,-50.761905)"
         xlink:href="#path5503"
         id="use5537" />
      <use
         height="1052.3622"
         width="744.09448"
         y="0"
         x="0"
         transform="matrix(-0.70899696,-0.6030152,0.6030152,-0.70899696,-172.74409,275.00524)"
         xlink:href="#path5503"
         id="use5539" />
      <use
         height="1052.3622"
         width="744.09448"
         y="0"
         x="0"
         transform="matrix(-0.72927142,0.60154308,-0.60154308,-0.72927142,61.080899,343.57703)"
         xlink:href="#path5503"
         id="use5541" />
      <use
         height="1052.3622"
         width="744.09448"
         y="0"
         x="0"
         transform="matrix(0.40382828,-0.86968687,0.86968687,0.40382828,-149.11365,85.626469)"
         xlink:href="#path5503"
         id="use5543" />
      <use
         height="1052.3622"
         width="744.09448"
         y="0"
         x="0"
         transform="matrix(1.040533,0.13443931,-0.13443931,1.040533,85.250479,-79.575025)"
         xlink:href="#path5503"
         id="use5545" />
      <use
         height="1052.3622"
         width="744.09448"
         y="0"
         x="0"
         transform="matrix(0.91602991,0.0863865,-0.0863865,0.91602991,11.771363,-51.223755)"
         xlink:href="#path5503"
         id="use5547" />
      <use
         height="1052.3622"
         width="744.09448"
         y="0"
         x="0"
         transform="matrix(0.50058991,0.91876991,-0.91876991,0.50058991,174.71962,115.5126)"
         xlink:href="#path5503"
         id="use5553" />
      <use
         height="1052.3622"
         width="744.09448"
         y="0"
         x="0"
         transform="matrix(-0.24109153,1.0085116,-1.0085116,-0.24109153,161.6963,205.55419)"
         xlink:href="#path5503"
         id="use5555" />
      <use
         height="1052.3622"
         width="744.09448"
         y="0"
         x="0"
         transform="matrix(1.0389983,-0.20283706,0.20283706,1.0389983,-24.726565,-13.132982)"
         xlink:href="#path5503"
         id="use5559" />
      <use
         height="1052.3622"
         width="744.09448"
         y="0"
         x="0"
         transform="matrix(0.97877905,0.18463697,-0.18463697,0.97877905,70.166952,-10.830829)"
         xlink:href="#path5503"
         id="use5561" />
      <use
         height="1052.3622"
         width="744.09448"
         y="0"
         x="0"
         transform="matrix(0.97256519,0.40155395,-0.40155395,0.97256519,76.900575,-38.801732)"
         xlink:href="#path5503"
         id="use5567" />
      <use
         height="1052.3622"
         width="744.09448"
         y="0"
         x="0"
         transform="matrix(0.77837199,-0.57930186,0.57930186,0.77837199,-138.13198,-51.90042)"
         xlink:href="#path5503"
         id="use5569" />
      <use
         height="1052.3622"
         width="744.09448"
         y="0"
         x="0"
         transform="matrix(0.81199916,-0.44292855,0.44292855,0.81199916,-73.20868,5.1526484)"
         xlink:href="#path5503"
         id="use5571" />
      <use
         height="1052.3622"
         width="744.09448"
         y="0"
         x="0"
         transform="matrix(-0.3100655,0.92681085,-0.92681085,-0.3100655,160.87764,291.19402)"
         xlink:href="#path5503"
         id="use5573" />
      <use
         height="1052.3622"
         width="744.09448"
         y="0"
         x="0"
         transform="matrix(0.09297165,0.93848367,-0.93848367,0.09297165,237.71949,182.38598)"
         xlink:href="#path5503"
         id="use5579" />
      <use
         height="1052.3622"
         width="744.09448"
         y="0"
         x="0"
         transform="matrix(0.28862978,-1.0317342,1.0317342,0.28862978,-156.92223,62.470307)"
         xlink:href="#path5503"
         id="use5581" />
      <use
         height="1052.3622"
         width="744.09448"
         y="0"
         x="0"
         transform="matrix(0.99630654,0.15376585,-0.15376585,0.99630654,78.054639,-14.047031)"
         xlink:href="#path5503"
         id="use5583" />
      <use
         height="1052.3622"
         width="744.09448"
         y="0"
         x="0"
         transform="matrix(0.53780249,-0.76448936,0.76448936,0.53780249,-119.62828,30.541238)"
         xlink:href="#path5503"
         id="use5593" />
      <use
         height="1052.3622"
         width="744.09448"
         y="0"
         x="0"
         transform="matrix(-0.04932324,0.98307985,-0.98307985,-0.04932324,197.4588,231.60688)"
         xlink:href="#path5503"
         id="use5595" />
      <use
         id="use5597"
         xlink:href="#path5503"
         transform="matrix(2.8519602,0.80071244,-0.80071244,2.8519602,304.97719,-412.72729)"
         x="0"
         y="0"
         width="744.09448"
         height="1052.3622" />
      <use
         height="1052.3622"
         width="744.09448"
         y="0"
         x="0"
         transform="matrix(2.8519602,0.80071244,-0.80071244,2.8519602,219.97719,-387.72729)"
         xlink:href="#path5503"
         id="use5599" />
      <use
         id="use5601"
         xlink:href="#path5503"
         transform="matrix(2.8519602,0.80071244,-0.80071244,2.8519602,221.40576,-364.15586)"
         x="0"
         y="0"
         width="744.09448"
         height="1052.3622" />
      <use
         height="1052.3622"
         width="744.09448"
         y="0"
         x="0"
         transform="matrix(2.8519602,0.80071244,-0.80071244,2.8519602,304.97719,-363.08443)"
         xlink:href="#path5503"
         id="use5603" />
      <use
         id="use5605"
         xlink:href="#path5503"
         transform="matrix(2.8519602,0.80071244,-0.80071244,2.8519602,268.54862,-398.79872)"
         x="0"
         y="0"
         width="744.09448"
         height="1052.3622" />
      <use
         height="1052.3622"
         width="744.09448"
         y="0"
         x="0"
         transform="matrix(1.696925,0.47642635,-0.47642635,1.696925,185.0017,-131.21602)"
         xlink:href="#path5503"
         id="use5607" />
      <use
         id="use5609"
         xlink:href="#path5503"
         transform="matrix(1.696925,0.47642635,-0.47642635,1.696925,135.35884,-189.43031)"
         x="0"
         y="0"
         width="744.09448"
         height="1052.3622" />
      <use
         height="1052.3622"
         width="744.09448"
         y="0"
         x="0"
         transform="matrix(1.696925,0.47642635,-0.47642635,1.696925,156.78742,-218.71603)"
         xlink:href="#path5503"
         id="use5611" />
      <use
         id="use5613"
         xlink:href="#path5503"
         transform="matrix(1.696925,0.47642635,-0.47642635,1.696925,143.57313,-209.07317)"
         x="0"
         y="0"
         width="744.09448"
         height="1052.3622" />
      <path
         sodipodi:type="arc"
         style="fill:url(#radialGradient5690);fill-opacity:1;fill-rule:evenodd;stroke:none"
         id="path5615"
         sodipodi:cx="-42.857143"
         sodipodi:cy="173.79076"
         sodipodi:rx="61.42857"
         sodipodi:ry="61.42857"
         d="m 18.571426,173.79076 c 0,33.92606 -27.5025071,61.42857 -61.428569,61.42857 -33.926063,0 -61.428567,-27.50251 -61.428567,-61.42857 0,-33.92607 27.502504,-61.42857 61.428567,-61.42857 33.9260619,0 61.428569,27.5025 61.428569,61.42857 z"
         transform="translate(38.571429,-14.285714)" />
      <path
         transform="translate(38.571429,-14.285714)"
         d="m 18.571426,173.79076 c 0,33.92606 -27.5025071,61.42857 -61.428569,61.42857 -33.926063,0 -61.428567,-27.50251 -61.428567,-61.42857 0,-33.92607 27.502504,-61.42857 61.428567,-61.42857 33.9260619,0 61.428569,27.5025 61.428569,61.42857 z"
         sodipodi:ry="61.42857"
         sodipodi:rx="61.42857"
         sodipodi:cy="173.79076"
         sodipodi:cx="-42.857143"
         id="path5625"
         style="fill:#fff9bd;fill-opacity:0.46031745;fill-rule:evenodd;stroke:none;filter:url(#filter5635)"
         sodipodi:type="arc" />
    </g>
  </g>
</svg>
