<?xml version="1.0" encoding="UTF-8" standalone="no"?>
<!-- Created with Inkscape (http://www.inkscape.org/) -->

<svg
   xmlns:dc="http://purl.org/dc/elements/1.1/"
   xmlns:cc="http://creativecommons.org/ns#"
   xmlns:rdf="http://www.w3.org/1999/02/22-rdf-syntax-ns#"
   xmlns:svg="http://www.w3.org/2000/svg"
   xmlns="http://www.w3.org/2000/svg"
   xmlns:sodipodi="http://sodipodi.sourceforge.net/DTD/sodipodi-0.dtd"
   xmlns:inkscape="http://www.inkscape.org/namespaces/inkscape"
   width="744.09448819"
   height="1052.3622047"
   id="svg6078"
   version="1.1"
   inkscape:version="0.48.4 r9939"
   sodipodi:docname="ropes.svg">
  <defs
     id="defs6080">
    <linearGradient
       id="linearGradient6598">
      <stop
         style="stop-color:#ffffff;stop-opacity:1;"
         offset="0"
         id="stop6600" />
      <stop
         style="stop-color:#ffc022;stop-opacity:0;"
         offset="1"
         id="stop6602" />
    </linearGradient>
  </defs>
  <sodipodi:namedview
     id="base"
     pagecolor="#ffffff"
     bordercolor="#666666"
     borderopacity="1.0"
     inkscape:pageopacity="0.0"
     inkscape:pageshadow="2"
     inkscape:zoom="1.5781394"
     inkscape:cx="169.89613"
     inkscape:cy="471.85624"
     inkscape:document-units="px"
     inkscape:current-layer="layer1"
     showgrid="false"
     inkscape:window-width="1920"
     inkscape:window-height="1027"
     inkscape:window-x="-8"
     inkscape:window-y="-8"
     inkscape:window-maximized="1" />
  <metadata
     id="metadata6083">
    <rdf:RDF>
      <cc:Work
         rdf:about="">
        <dc:format>image/svg+xml</dc:format>
        <dc:type
           rdf:resource="http://purl.org/dc/dcmitype/StillImage" />
        <dc:title></dc:title>
      </cc:Work>
    </rdf:RDF>
  </metadata>
  <g
     inkscape:label="Layer 1"
     inkscape:groupmode="layer"
     id="layer1">
    <g
       id="g6628"
       transform="translate(7.9207198,16.791926)"
       inkscape:export-filename="E:\Projects\java\LD31\Assets\gfx\ropes\parts\rope.png"
       inkscape:export-xdpi="90"
       inkscape:export-ydpi="90">
      <g
         id="g6635">
        <rect
           style="fill:#ffc022;fill-opacity:1;fill-rule:evenodd;stroke:none"
           id="rect6618"
           width="16"
           height="16"
           x="147.00856"
           y="595.33649"
           ry="0.30916843" />
        <rect
           ry="0.094895236"
           y="606.42548"
           x="147.00856"
           height="4.9109921"
           width="16"
           id="rect6620"
           style="fill:#000000;fill-opacity:0.21164018;fill-rule:evenodd;stroke:none" />
        <rect
           style="fill:#000000;fill-opacity:1;fill-rule:evenodd;stroke:none"
           id="rect6622"
           width="16"
           height="1.7427042"
           x="147.00856"
           y="609.59375"
           ry="0.033674322" />
        <rect
           ry="0.085712098"
           y="595.33649"
           x="147.00856"
           height="4.4357491"
           width="16"
           id="rect6624"
           style="fill:#ffffff;fill-opacity:0.20105818;fill-rule:evenodd;stroke:none" />
        <rect
           style="fill:#000000;fill-opacity:1;fill-rule:evenodd;stroke:none"
           id="rect6626"
           width="16"
           height="1.9011186"
           x="147.00856"
           y="595.33649"
           ry="0.036735367" />
      </g>
    </g>
    <g
       id="g6613"
       transform="matrix(0.94107467,0,0,0.94122958,-2.0765338,43.130949)"
       inkscape:export-filename="E:\Projects\java\LD31\Assets\gfx\ropes\parts\rope_end.png"
       inkscape:export-xdpi="90"
       inkscape:export-ydpi="90">
      <path
         transform="matrix(0.86153847,0,0,0.86153847,-2.8131879,99.777612)"
         d="m 212.85715,526.64789 c 0,10.25671 -8.31471,18.57143 -18.57143,18.57143 -10.25672,0 -18.57143,-8.31472 -18.57143,-18.57143 0,-10.25672 8.31471,-18.57143 18.57143,-18.57143 10.25672,0 18.57143,8.31471 18.57143,18.57143 z"
         sodipodi:ry="18.571428"
         sodipodi:rx="18.571428"
         sodipodi:cy="526.64789"
         sodipodi:cx="194.28572"
         id="path6086"
         style="fill:#ffc022;fill-opacity:1;fill-rule:evenodd;stroke:#000000;stroke-width:2.32142854;stroke-miterlimit:4;stroke-opacity:1;stroke-dasharray:none"
         sodipodi:type="arc" />
      <path
         id="path6606"
         d="m 151.40625,544.4375 c -1.77882,2.5786 -2.84375,5.69291 -2.84375,9.0625 0,8.83656 7.16344,16 16,16 4.74618,0 9.00736,-2.06138 11.9375,-5.34375 -2.15979,0.88814 -4.51694,1.375 -7,1.375 -10.12771,0 -18.34375,-8.16078 -18.34375,-18.21875 0,-0.98609 0.0981,-1.93141 0.25,-2.875 z"
         style="fill:#000000;fill-opacity:0.16402115;fill-rule:evenodd;stroke:none"
         inkscape:connector-curvature="0" />
      <path
         sodipodi:type="arc"
         style="fill:#ffffff;fill-opacity:0.35449733;fill-rule:evenodd;stroke:none"
         id="path6611"
         sodipodi:cx="194.28572"
         sodipodi:cy="526.64789"
         sodipodi:rx="18.571428"
         sodipodi:ry="18.571428"
         d="m 212.85715,526.64789 c 0,10.25671 -8.31471,18.57143 -18.57143,18.57143 -10.25672,0 -18.57143,-8.31472 -18.57143,-18.57143 0,-10.25672 8.31471,-18.57143 18.57143,-18.57143 10.25672,0 18.57143,8.31471 18.57143,18.57143 z"
         transform="matrix(0.18819402,0,0,0.18819402,134.63715,447.38511)" />
    </g>
  </g>
</svg>
